{
  "accessors": [
    {
      "bufferView": 2,
      "componentType": 5126,
      "count": 901,
      "max": [
        0.7449271082878113,
        2.313676118850708,
        0.6578034162521362
      ],
      "min": [
        -0.7449271082878113,
        -0.09070020169019699,
        -1.492956519126892
      ],
      "type": "VEC3"
    },
    {
      "bufferView": 2,
      "byteOffset": 10812,
      "componentType": 5126,
      "count": 901,
      "max": [
        0.9948111772537231,
        0.9999792575836182,
        0.9910014271736145
      ],
      "min": [
        -0.9949061870574951,
        -0.9999855756759644,
        -0.9913607239723206
      ],
      "type": "VEC3"
    },
    {
      "bufferView": 1,
      "componentType": 5126,
      "count": 901,
      "max": [
        0.9980400204658508,
        0.99617999792099
      ],
      "min": [
        0.0019499999471008778,
        0.0019499999471008778
      ],
      "type": "VEC2"
    },
    {
      "bufferView": 0,
      "componentType": 5125,
      "count": 4908,
      "type": "SCALAR"
    },
    {
      "bufferView": 2,
      "byteOffset": 21624,
      "componentType": 5126,
      "count": 167,
      "max": [
        1.0,
        1.0,
        1.0
      ],
      "min": [
        -1.0,
        -1.0,
        -1.0
      ],
      "type": "VEC3"
    },
    {
      "bufferView": 2,
      "byteOffset": 23628,
      "componentType": 5126,
      "count": 167,
      "max": [
        1.0,
        1.0,
        1.0
      ],
      "min": [
        -1.0,
        -1.0,
        -1.0
      ],
      "type": "VEC3"
    },
    {
      "bufferView": 1,
      "byteOffset": 7208,
      "componentType": 5126,
      "count": 167,
      "max": [
        0.9999998807907104,
        1.0
      ],
      "min": [
        0.0,
        0.0
      ],
      "type": "VEC2"
    },
    {
      "bufferView": 0,
      "byteOffset": 19632,
      "componentType": 5125,
      "count": 792,
      "type": "SCALAR"
    },
    {
      "bufferView": 2,
      "byteOffset": 25632,
      "componentType": 5126,
      "count": 331,
      "max": [
        0.4575032889842987,
        1.312173843383789,
        0.49230486154556274
      ],
      "min": [
        -0.481361985206604,
        0.2863783538341522,
        0.07147473841905594
      ],
      "type": "VEC3"
    },
    {
      "bufferView": 2,
      "byteOffset": 29604,
      "componentType": 5126,
      "count": 331,
      "max": [
        0.9984995722770691,
        0.4572097659111023,
        0.9986937046051025
      ],
      "min": [
        -0.9984584450721741,
        -0.4551144242286682,
        -0.9921877384185791
      ],
      "type": "VEC3"
    },
    {
      "bufferView": 1,
      "byteOffset": 8544,
      "componentType": 5126,
      "count": 331,
      "max": [
        0.65625,
        0.9790666103363037
      ],
      "min": [
        0.34375,
        0.3125
      ],
      "type": "VEC2"
    },
    {
      "bufferView": 0,
      "byteOffset": 22800,
      "componentType": 5125,
      "count": 1524,
      "type": "SCALAR"
    },
    {
      "bufferView": 2,
      "byteOffset": 33576,
      "componentType": 5126,
      "count": 334,
      "max": [
        0.40773484110832214,
        1.2359428405761719,
        -0.03605392575263977
      ],
      "min": [
        -0.40773484110832214,
        0.9709980487823486,
        -0.30450743436813354
      ],
      "type": "VEC3"
    },
    {
      "bufferView": 2,
      "byteOffset": 37584,
      "componentType": 5126,
      "count": 334,
      "max": [
        0.9825805425643921,
        0.9855403900146484,
        0.9997186064720154
      ],
      "min": [
        -0.9825804829597473,
        -0.9855402708053589,
        -0.9997186064720154
      ],
      "type": "VEC3"
    },
    {
      "bufferView": 1,
      "byteOffset": 11192,
      "componentType": 5126,
      "count": 334,
      "max": [
        0.9999998807907104,
        1.0
      ],
      "min": [
        0.0,
        0.0
      ],
      "type": "VEC2"
    },
    {
      "bufferView": 0,
      "byteOffset": 28896,
      "componentType": 5125,
      "count": 1584,
      "type": "SCALAR"
    },
    {
      "bufferView": 2,
      "byteOffset": 41592,
      "componentType": 5126,
      "count": 334,
      "max": [
        0.40773484110832214,
        1.2359428405761719,
        -0.03605392575263977
      ],
      "min": [
        -0.40773484110832214,
        0.9709980487823486,
        -0.30450743436813354
      ],
      "type": "VEC3"
    },
    {
      "bufferView": 2,
      "byteOffset": 45600,
      "componentType": 5126,
      "count": 334,
      "max": [
        0.9825805425643921,
        0.9855403900146484,
        0.9997186064720154
      ],
      "min": [
        -0.9825804829597473,
        -0.9855402708053589,
        -0.9997186064720154
      ],
      "type": "VEC3"
    },
    {
      "bufferView": 1,
      "byteOffset": 13864,
      "componentType": 5126,
      "count": 334,
      "max": [
        0.9999998807907104,
        1.0
      ],
      "min": [
        0.0,
        0.0
      ],
      "type": "VEC2"
    },
    {
      "bufferView": 0,
      "byteOffset": 35232,
      "componentType": 5125,
      "count": 1584,
      "type": "SCALAR"
    }
  ],
  "asset": {
    "extras": {
      "author": "vanessalani (https://sketchfab.com/vanessalani)",
      "license": "CC-BY-4.0 (http://creativecommons.org/licenses/by/4.0/)",
      "source": "https://sketchfab.com/3d-models/lanternfish-lamp-5c1f3fb809124092910e45570957ab62",
      "title": "Lanternfish Lamp"
    },
    "generator": "Sketchfab-12.67.0",
    "version": "2.0"
  },
  "bufferViews": [
    {
      "buffer": 0,
      "byteLength": 41568,
      "name": "floatBufferViews",
      "target": 34963
    },
    {
      "buffer": 0,
      "byteLength": 16536,
      "byteOffset": 41568,
      "byteStride": 8,
      "name": "floatBufferViews",
      "target": 34962
    },
    {
      "buffer": 0,
      "byteLength": 49608,
      "byteOffset": 58104,
      "byteStride": 12,
      "name": "floatBufferViews",
      "target": 34962
    }
  ],
  "buffers": [
    {
      "byteLength": 107712,
      "uri": "scene.bin"
    }
  ],
  "images": [
    {
      "uri": "textures/lambert5_baseColor.png"
    }
  ],
  "materials": [
    {
      "doubleSided": true,
      "name": "lambert5",
      "pbrMetallicRoughness": {
        "baseColorTexture": {
          "index": 0
        },
        "metallicFactor": 0.0,
        "roughnessFactor": 0.6568994308053109
      }
    },
    {
      "alphaMode": "BLEND",
      "doubleSided": true,
      "emissiveFactor": [
        1.0,
        1.0,
        1.0
      ],
      "name": "LAMP_MAT",
      "pbrMetallicRoughness": {
        "baseColorFactor": [
          1.0,
          0.8711861552584397,
          0.0,
          0.22049045324920122
        ],
        "metallicFactor": 0.0,
        "roughnessFactor": 0.33894431858585955
      }
    },
    {
      "doubleSided": true,
      "name": "TEETH_MAT",
      "pbrMetallicRoughness": {
        "baseColorFactor": [
          0.8573389334190656,
          0.8573389334190656,
          0.8573389334190656,
          1.0
        ],
        "metallicFactor": 0.0,
        "roughnessFactor": 0.40128845823673237
      }
    },
    {
      "alphaMode": "BLEND",
      "doubleSided": true,
      "emissiveFactor": [
        0.02442440079163489,
        0.06893869588781398,
        0.035374314519178704
      ],
      "name": "EYES_MAT",
      "pbrMetallicRoughness": {
        "baseColorFactor": [
          0.007220303100000002,
          0.012384398500000003,
          0.013282103199999994,
          0.3202410766905977
        ],
        "metallicFactor": 0.0,
        "roughnessFactor": 0.2516625230746376
      }
    },
    {
      "doubleSided": true,
      "name": "EYES_LIMP_MAT",
      "pbrMetallicRoughness": {
        "baseColorFactor": [
          0.0,
          0.0,
          0.0,
          1.0
        ],
        "metallicFactor": 0.0,
        "roughnessFactor": 0.4573981839225179
      }
    }
  ],
  "meshes": [
    {
      "name": "FISH_LOW_lambert5_0",
      "primitives": [
        {
          "attributes": {
            "NORMAL": 1,
            "POSITION": 0,
            "TEXCOORD_0": 2
          },
          "indices": 3,
          "material": 0,
          "mode": 4
        }
      ]
    },
    {
      "name": "LAMP_LAMP_MAT_0",
      "primitives": [
        {
          "attributes": {
            "NORMAL": 5,
            "POSITION": 4,
            "TEXCOORD_0": 6
          },
          "indices": 7,
          "material": 1,
          "mode": 4
        }
      ]
    },
    {
      "name": "TEETH_TEETH_MAT_0",
      "primitives": [
        {
          "attributes": {
            "NORMAL": 9,
            "POSITION": 8,
            "TEXCOORD_0": 10
          },
          "indices": 11,
          "material": 2,
          "mode": 4
        }
      ]
    },
    {
      "name": "EYES_EYES_MAT_0",
      "primitives": [
        {
          "attributes": {
            "NORMAL": 13,
            "POSITION": 12,
            "TEXCOORD_0": 14
          },
          "indices": 15,
          "material": 3,
          "mode": 4
        }
      ]
    },
    {
      "name": "EYES_LIMP_EYES_LIMP_MAT_0",
      "primitives": [
        {
          "attributes": {
            "NORMAL": 17,
            "POSITION": 16,
            "TEXCOORD_0": 18
          },
          "indices": 19,
          "material": 4,
          "mode": 4
        }
      ]
    }
  ],
  "nodes": [
    {
      "children": [
        1
      ],
      "matrix": [
        1.0,
        0.0,
        0.0,
        0.0,
        0.0,
        2.220446049250313e-16,
        -1.0,
        0.0,
        0.0,
        1.0,
        2.220446049250313e-16,
        0.0,
        0.0,
        0.0,
        0.0,
        1.0
      ],
      "name": "Sketchfab_model"
    },
    {
      "children": [
        2
      ],
      "matrix": [
        1.0,
        0.0,
        0.0,
        0.0,
        0.0,
        0.0,
        1.0,
        0.0,
        0.0,
        -1.0,
        0.0,
        0.0,
        0.0,
        0.0,
        0.0,
        1.0
      ],
      "name": "47dc1ea7768d478da747d6b9b32e40a0.fbx"
    },
    {
      "children": [
        3,
        5,
        7,
        9,
        11
      ],
      "name": "RootNode"
    },
    {
      "children": [
        4
      ],
      "name": "FISH_LOW"
    },
    {
      "mesh": 0,
      "name": "FISH_LOW_lambert5_0"
    },
    {
      "children": [
        6
      ],
      "matrix": [
        0.08735433220863342,
        0.0,
        0.0,
        0.0,
        0.0,
        0.07882115594436612,
        -0.03765640358837006,
        0.0,
        0.0,
        0.03765640358837006,
        0.07882115594436612,
        0.0,
        0.0,
        1.9703376293182373,
        0.6509212255477905,
        1.0
      ],
      "name": "LAMP"
    },
    {
      "mesh": 1,
      "name": "LAMP_LAMP_MAT_0"
    },
    {
      "children": [
        8
      ],
      "name": "TEETH"
    },
    {
      "mesh": 2,
      "name": "TEETH_TEETH_MAT_0"
    },
    {
      "children": [
        10
      ],
      "name": "EYES"
    },
    {
      "mesh": 3,
      "name": "EYES_EYES_MAT_0"
    },
    {
      "children": [
        12
      ],
      "matrix": [
        0.9477402567863464,
        0.0,
        0.0,
        0.0,
        0.0,
        0.9477402567863464,
        0.0,
        0.0,
        0.0,
        0.0,
        0.9477402567863464,
        0.0,
        0.0,
        0.03946454077959061,
        -0.015697931870818138,
        1.0
      ],
      "name": "EYES_LIMP"
    },
    {
      "mesh": 4,
      "name": "EYES_LIMP_EYES_LIMP_MAT_0"
    }
  ],
  "samplers": [
    {
      "magFilter": 9729,
      "minFilter": 9987,
      "wrapS": 10497,
      "wrapT": 10497
    }
  ],
  "scene": 0,
  "scenes": [
    {
      "name": "Sketchfab_Scene",
      "nodes": [
        0
      ]
    }
  ],
  "textures": [
    {
      "sampler": 0,
      "source": 0
    }
  ]
}
